<svg xmlns="http://www.w3.org/2000/svg" xmlns:xlink="http://www.w3.org/1999/xlink" width="1080" zoomAndPan="magnify" viewBox="0 0 810 1439.999935" height="1920" preserveAspectRatio="xMidYMid meet" version="1.0"><defs><g/></defs><g fill="#49e9ff" fill-opacity="1"><g transform="translate(184.542697, 750.209549)"><g><path d="M 5.15625 -45.234375 C 5.15625 -51.429688 6.328125 -57.265625 8.671875 -62.734375 C 11.015625 -68.203125 14.269531 -73.019531 18.4375 -77.1875 C 22.601562 -81.351562 27.421875 -84.601562 32.890625 -86.9375 C 38.359375 -89.28125 44.191406 -90.453125 50.390625 -90.453125 C 56.585938 -90.453125 62.421875 -89.28125 67.890625 -86.9375 C 73.367188 -84.601562 78.191406 -81.351562 82.359375 -77.1875 C 86.523438 -73.019531 89.773438 -68.203125 92.109375 -62.734375 C 94.453125 -57.265625 95.625 -51.429688 95.625 -45.234375 C 95.625 -39.722656 94.691406 -34.503906 92.828125 -29.578125 C 90.972656 -24.660156 88.394531 -20.203125 85.09375 -16.203125 C 81.789062 -12.210938 77.898438 -8.910156 73.421875 -6.296875 L 74.5625 -5.0625 C 77.382812 -1.757812 80.101562 0.644531 82.71875 2.15625 C 85.332031 3.675781 87.84375 4.554688 90.25 4.796875 C 92.664062 5.035156 95.007812 4.863281 97.28125 4.28125 C 99.550781 3.695312 101.753906 2.957031 103.890625 2.0625 L 104.09375 2.78125 L 87.046875 10.125 C 85.328125 10.875 83.28125 11.507812 80.90625 12.03125 C 78.53125 12.550781 75.945312 12.707031 73.15625 12.5 C 70.375 12.289062 67.46875 11.460938 64.4375 10.015625 C 61.40625 8.566406 58.34375 6.257812 55.25 3.09375 L 52.15625 0 L 50.390625 0 C 44.128906 0 38.257812 -1.1875 32.78125 -3.5625 C 27.3125 -5.9375 22.507812 -9.207031 18.375 -13.375 C 14.25 -17.539062 11.015625 -22.359375 8.671875 -27.828125 C 6.328125 -33.304688 5.15625 -39.109375 5.15625 -45.234375 Z M 26.234375 -45.234375 C 26.234375 -38.003906 26.726562 -31.875 27.71875 -26.84375 C 28.71875 -21.820312 30.046875 -17.691406 31.703125 -14.453125 C 33.359375 -11.222656 35.113281 -8.675781 36.96875 -6.8125 L 42.75 -9.296875 C 46.332031 -10.535156 49.515625 -11.582031 52.296875 -12.4375 C 55.085938 -13.300781 57.703125 -13.734375 60.140625 -13.734375 C 62.585938 -13.734375 65.050781 -12.976562 67.53125 -11.46875 C 69.53125 -14.695312 71.203125 -19.03125 72.546875 -24.46875 C 73.890625 -29.90625 74.5625 -36.828125 74.5625 -45.234375 C 74.5625 -53.210938 73.941406 -59.851562 72.703125 -65.15625 C 71.460938 -70.457031 69.878906 -74.707031 67.953125 -77.90625 C 66.023438 -81.113281 63.941406 -83.523438 61.703125 -85.140625 C 59.460938 -86.753906 57.34375 -87.835938 55.34375 -88.390625 C 53.351562 -88.941406 51.703125 -89.21875 50.390625 -89.21875 C 49.085938 -89.21875 47.4375 -88.941406 45.4375 -88.390625 C 43.4375 -87.835938 41.332031 -86.753906 39.125 -85.140625 C 36.925781 -83.523438 34.847656 -81.113281 32.890625 -77.90625 C 30.929688 -74.707031 29.332031 -70.457031 28.09375 -65.15625 C 26.851562 -59.851562 26.234375 -53.210938 26.234375 -45.234375 Z M 37.6875 -6.203125 C 40.101562 -4.066406 42.460938 -2.703125 44.765625 -2.109375 C 47.066406 -1.523438 48.941406 -1.234375 50.390625 -1.234375 L 50.90625 -1.234375 C 48.632812 -3.503906 46.789062 -5.070312 45.375 -5.9375 C 43.96875 -6.800781 42.710938 -7.210938 41.609375 -7.171875 C 40.515625 -7.140625 39.207031 -6.816406 37.6875 -6.203125 Z M 37.6875 -6.203125 "/></g></g></g><g fill="#49e9ff" fill-opacity="1"><g transform="translate(285.329116, 750.209549)"><g><path d="M 53.078125 0.71875 C 48.742188 0.71875 44.441406 -0.0195312 40.171875 -1.5 C 35.898438 -2.976562 32.007812 -5.054688 28.5 -7.734375 C 24.988281 -10.421875 22.179688 -13.570312 20.078125 -17.1875 C 17.984375 -20.800781 16.9375 -24.710938 16.9375 -28.921875 L 16.9375 -77.140625 C 16.9375 -80.578125 15.898438 -83.257812 13.828125 -85.1875 C 11.765625 -87.113281 8.875 -88.078125 5.15625 -88.078125 L 5.15625 -89.015625 L 49.671875 -89.015625 L 49.671875 -88.078125 C 45.878906 -88.078125 42.984375 -87.128906 40.984375 -85.234375 C 38.992188 -83.347656 38 -80.890625 38 -77.859375 L 38 -36.765625 C 38 -33.804688 38.15625 -30.671875 38.46875 -27.359375 C 38.78125 -24.054688 39.3125 -20.820312 40.0625 -17.65625 C 40.820312 -14.488281 41.925781 -11.613281 43.375 -9.03125 C 44.820312 -6.445312 46.660156 -4.378906 48.890625 -2.828125 C 51.128906 -1.285156 53.867188 -0.515625 57.109375 -0.515625 C 59.097656 -0.515625 61.363281 -0.804688 63.90625 -1.390625 C 66.457031 -1.972656 69.039062 -2.921875 71.65625 -4.234375 C 74.28125 -5.546875 76.707031 -7.285156 78.9375 -9.453125 C 81.175781 -11.617188 82.96875 -14.234375 84.3125 -17.296875 C 85.65625 -20.359375 86.328125 -23.988281 86.328125 -28.1875 L 86.328125 -77.65625 C 86.328125 -80.894531 85.296875 -83.441406 83.234375 -85.296875 C 81.171875 -87.148438 78.28125 -88.078125 74.5625 -88.078125 L 74.5625 -89.015625 L 98.921875 -89.015625 L 98.921875 -88.078125 C 95.347656 -88.078125 92.507812 -87.148438 90.40625 -85.296875 C 88.3125 -83.441406 87.265625 -80.894531 87.265625 -77.65625 L 87.265625 -28.1875 C 87.265625 -21.789062 85.710938 -16.457031 82.609375 -12.1875 C 79.515625 -7.914062 75.367188 -4.695312 70.171875 -2.53125 C 64.972656 -0.363281 59.273438 0.71875 53.078125 0.71875 Z M 53.078125 0.71875 "/></g></g></g><g fill="#49e9ff" fill-opacity="1"><g transform="translate(389.42002, 750.209549)"><g><path d="M 28.09375 -92.9375 C 26.164062 -92.9375 24.492188 -93.640625 23.078125 -95.046875 C 21.671875 -96.460938 20.96875 -98.132812 20.96875 -100.0625 C 20.96875 -101.988281 21.671875 -103.65625 23.078125 -105.0625 C 24.492188 -106.476562 26.164062 -107.1875 28.09375 -107.1875 C 30.019531 -107.1875 31.6875 -106.476562 33.09375 -105.0625 C 34.507812 -103.65625 35.21875 -101.988281 35.21875 -100.0625 C 35.21875 -98.132812 34.507812 -96.460938 33.09375 -95.046875 C 31.6875 -93.640625 30.019531 -92.9375 28.09375 -92.9375 Z M 5.15625 -0.921875 C 8.945312 -0.921875 11.925781 -1.898438 14.09375 -3.859375 C 16.257812 -5.828125 17.34375 -8.5 17.34375 -11.875 L 17.34375 -77.140625 C 17.34375 -80.578125 16.257812 -83.257812 14.09375 -85.1875 C 11.925781 -87.113281 8.945312 -88.078125 5.15625 -88.078125 L 5.15625 -89.015625 L 50.90625 -89.015625 L 50.90625 -88.078125 C 47.125 -88.078125 44.144531 -87.113281 41.96875 -85.1875 C 39.800781 -83.257812 38.71875 -80.578125 38.71875 -77.140625 L 38.71875 -11.875 C 38.71875 -8.5 39.800781 -5.828125 41.96875 -3.859375 C 44.144531 -1.898438 47.125 -0.921875 50.90625 -0.921875 L 50.90625 0 L 5.15625 0 Z M 5.15625 -0.921875 "/></g></g></g><g fill="#49e9ff" fill-opacity="1"><g transform="translate(445.492793, 750.209549)"><g><path d="M 50.390625 0 C 44.398438 0 38.753906 -1.082031 33.453125 -3.25 C 28.148438 -5.414062 23.429688 -8.460938 19.296875 -12.390625 C 15.171875 -16.316406 11.867188 -20.859375 9.390625 -26.015625 C 6.910156 -31.179688 5.5 -36.757812 5.15625 -42.75 L 5.15625 -47.921875 C 5.5 -53.566406 6.820312 -58.863281 9.125 -63.8125 C 11.4375 -68.769531 14.453125 -73.144531 18.171875 -76.9375 L 18.484375 -77.25 C 22.753906 -81.507812 27.625 -84.773438 33.09375 -87.046875 C 38.570312 -89.316406 44.335938 -90.453125 50.390625 -90.453125 C 55.691406 -90.453125 60.753906 -89.5625 65.578125 -87.78125 C 70.460938 -86.332031 74.023438 -85.78125 76.265625 -86.125 C 78.503906 -86.46875 79.722656 -87.601562 79.921875 -89.53125 L 80.859375 -89.53125 L 80.859375 -65.15625 L 79.921875 -65.15625 C 79.785156 -68.945312 78.875 -72.335938 77.1875 -75.328125 C 75.5 -78.328125 73.257812 -80.894531 70.46875 -83.03125 C 67.6875 -85.164062 64.570312 -86.78125 61.125 -87.875 C 57.6875 -88.976562 54.109375 -89.53125 50.390625 -89.53125 C 49.085938 -89.53125 47.4375 -89.253906 45.4375 -88.703125 C 43.4375 -88.148438 41.332031 -87.046875 39.125 -85.390625 C 36.925781 -83.742188 34.847656 -81.285156 32.890625 -78.015625 C 30.929688 -74.742188 29.332031 -70.457031 28.09375 -65.15625 C 26.851562 -59.851562 26.234375 -53.210938 26.234375 -45.234375 C 26.234375 -37.316406 26.851562 -30.6875 28.09375 -25.34375 C 29.332031 -20.007812 30.929688 -15.707031 32.890625 -12.4375 C 34.847656 -9.164062 36.925781 -6.703125 39.125 -5.046875 C 41.332031 -3.398438 43.4375 -2.300781 45.4375 -1.75 C 47.4375 -1.195312 49.085938 -0.921875 50.390625 -0.921875 C 56.171875 -0.921875 61.265625 -2.109375 65.671875 -4.484375 C 70.078125 -6.867188 73.535156 -10.242188 76.046875 -14.609375 C 78.566406 -18.984375 79.859375 -24.128906 79.921875 -30.046875 L 79.921875 -31.5 L 80.859375 -31.5 L 80.859375 -0.921875 L 79.921875 -0.921875 C 79.722656 -2.992188 78.453125 -4.148438 76.109375 -4.390625 C 73.765625 -4.628906 70.253906 -4.0625 65.578125 -2.6875 C 60.753906 -0.894531 55.691406 0 50.390625 0 Z M 50.390625 0 "/></g></g></g><g fill="#49e9ff" fill-opacity="1"><g transform="translate(531.512345, 750.209549)"><g><path d="M 79.40625 -24.0625 C 81.75 -15.726562 84.863281 -9.785156 88.75 -6.234375 C 92.644531 -2.691406 96.898438 -0.921875 101.515625 -0.921875 L 101.515625 0 L 80.859375 0 C 78.304688 0 75.550781 -0.84375 72.59375 -2.53125 C 69.632812 -4.21875 66.8125 -6.847656 64.125 -10.421875 C 61.4375 -14.003906 59.164062 -18.550781 57.3125 -24.0625 C 55.726562 -28.8125 54.039062 -32.875 52.25 -36.25 C 50.457031 -39.625 48.476562 -42.03125 46.3125 -43.46875 C 44.144531 -44.914062 41.613281 -45.125 38.71875 -44.09375 L 38.71875 -11.875 C 38.71875 -8.5 39.800781 -5.828125 41.96875 -3.859375 C 44.144531 -1.898438 47.125 -0.921875 50.90625 -0.921875 L 50.90625 0 L 5.15625 0 L 5.15625 -0.921875 C 8.945312 -0.921875 11.925781 -1.898438 14.09375 -3.859375 C 16.257812 -5.828125 17.34375 -8.5 17.34375 -11.875 L 17.34375 -77.140625 C 17.34375 -80.578125 16.257812 -83.257812 14.09375 -85.1875 C 11.925781 -87.113281 8.945312 -88.078125 5.15625 -88.078125 L 5.15625 -89.015625 L 50.90625 -89.015625 L 50.90625 -88.078125 C 47.125 -88.078125 44.144531 -87.113281 41.96875 -85.1875 C 39.800781 -83.257812 38.71875 -80.578125 38.71875 -77.140625 L 38.71875 -46.578125 L 68.046875 -77.140625 C 70.253906 -79.410156 71.613281 -81.25 72.125 -82.65625 C 72.644531 -84.070312 72.660156 -85.15625 72.171875 -85.90625 C 71.691406 -86.664062 71.003906 -87.203125 70.109375 -87.515625 C 69.222656 -87.828125 68.429688 -88.015625 67.734375 -88.078125 L 66.609375 -88.078125 L 66.609375 -89.015625 L 90.984375 -89.015625 L 90.984375 -88.078125 L 89.421875 -88.078125 C 88.253906 -88.015625 86.632812 -87.691406 84.5625 -87.109375 C 82.5 -86.523438 80.160156 -85.457031 77.546875 -83.90625 C 74.929688 -82.351562 72.179688 -80.097656 69.296875 -77.140625 L 38.71875 -45.125 C 42.300781 -48.15625 46.125 -49.773438 50.1875 -49.984375 C 54.25 -50.191406 58.238281 -49.242188 62.15625 -47.140625 C 66.082031 -45.035156 69.5625 -42.003906 72.59375 -38.046875 C 75.625 -34.085938 77.894531 -29.425781 79.40625 -24.0625 Z M 79.40625 -24.0625 "/></g></g></g><g fill="#49e9ff" fill-opacity="1"><g transform="translate(206.376895, 894.28621)"><g><path d="M 50.390625 0 C 44.398438 0 38.753906 -1.082031 33.453125 -3.25 C 28.148438 -5.414062 23.429688 -8.460938 19.296875 -12.390625 C 15.171875 -16.316406 11.867188 -20.859375 9.390625 -26.015625 C 6.910156 -31.179688 5.5 -36.757812 5.15625 -42.75 L 5.15625 -47.921875 C 5.5 -53.566406 6.820312 -58.863281 9.125 -63.8125 C 11.4375 -68.769531 14.453125 -73.144531 18.171875 -76.9375 L 18.484375 -77.25 C 22.753906 -81.507812 27.625 -84.773438 33.09375 -87.046875 C 38.570312 -89.316406 44.335938 -90.453125 50.390625 -90.453125 C 55.691406 -90.453125 60.753906 -89.5625 65.578125 -87.78125 C 70.460938 -86.332031 74.023438 -85.78125 76.265625 -86.125 C 78.503906 -86.46875 79.722656 -87.601562 79.921875 -89.53125 L 80.859375 -89.53125 L 80.859375 -65.15625 L 79.921875 -65.15625 C 79.785156 -68.945312 78.875 -72.335938 77.1875 -75.328125 C 75.5 -78.328125 73.257812 -80.894531 70.46875 -83.03125 C 67.6875 -85.164062 64.570312 -86.78125 61.125 -87.875 C 57.6875 -88.976562 54.109375 -89.53125 50.390625 -89.53125 C 49.085938 -89.53125 47.4375 -89.253906 45.4375 -88.703125 C 43.4375 -88.148438 41.332031 -87.046875 39.125 -85.390625 C 36.925781 -83.742188 34.847656 -81.285156 32.890625 -78.015625 C 30.929688 -74.742188 29.332031 -70.457031 28.09375 -65.15625 C 26.851562 -59.851562 26.234375 -53.210938 26.234375 -45.234375 C 26.234375 -37.316406 26.851562 -30.6875 28.09375 -25.34375 C 29.332031 -20.007812 30.929688 -15.707031 32.890625 -12.4375 C 34.847656 -9.164062 36.925781 -6.703125 39.125 -5.046875 C 41.332031 -3.398438 43.4375 -2.300781 45.4375 -1.75 C 47.4375 -1.195312 49.085938 -0.921875 50.390625 -0.921875 C 56.171875 -0.921875 61.265625 -2.109375 65.671875 -4.484375 C 70.078125 -6.867188 73.535156 -10.242188 76.046875 -14.609375 C 78.566406 -18.984375 79.859375 -24.128906 79.921875 -30.046875 L 79.921875 -31.5 L 80.859375 -31.5 L 80.859375 -0.921875 L 79.921875 -0.921875 C 79.722656 -2.992188 78.453125 -4.148438 76.109375 -4.390625 C 73.765625 -4.628906 70.253906 -4.0625 65.578125 -2.6875 C 60.753906 -0.894531 55.691406 0 50.390625 0 Z M 50.390625 0 "/></g></g></g><g fill="#49e9ff" fill-opacity="1"><g transform="translate(292.396447, 894.28621)"><g><path d="M 5.15625 -0.921875 C 8.945312 -0.921875 11.925781 -1.898438 14.09375 -3.859375 C 16.257812 -5.828125 17.34375 -8.5 17.34375 -11.875 L 17.34375 -77.140625 C 17.34375 -80.578125 16.257812 -83.257812 14.09375 -85.1875 C 11.925781 -87.113281 8.945312 -88.078125 5.15625 -88.078125 L 5.15625 -89.015625 L 50.90625 -89.015625 L 50.90625 -88.078125 C 47.125 -88.078125 44.144531 -87.113281 41.96875 -85.1875 C 39.800781 -83.257812 38.71875 -80.578125 38.71875 -77.140625 L 38.71875 -42.75 L 74.046875 -42.75 L 74.046875 -77.140625 C 74.046875 -80.578125 72.957031 -83.257812 70.78125 -85.1875 C 68.613281 -87.113281 65.640625 -88.078125 61.859375 -88.078125 L 61.859375 -89.015625 L 107.609375 -89.015625 L 107.609375 -88.078125 C 103.816406 -88.078125 100.835938 -87.113281 98.671875 -85.1875 C 96.503906 -83.257812 95.421875 -80.578125 95.421875 -77.140625 L 95.421875 -11.875 C 95.421875 -8.5 96.503906 -5.828125 98.671875 -3.859375 C 100.835938 -1.898438 103.816406 -0.921875 107.609375 -0.921875 L 107.609375 0 L 61.859375 0 L 61.859375 -0.921875 C 65.640625 -0.921875 68.613281 -1.898438 70.78125 -3.859375 C 72.957031 -5.828125 74.046875 -8.5 74.046875 -11.875 L 74.046875 -41.828125 L 38.71875 -41.828125 L 38.71875 -11.875 C 38.71875 -8.5 39.800781 -5.828125 41.96875 -3.859375 C 44.144531 -1.898438 47.125 -0.921875 50.90625 -0.921875 L 50.90625 0 L 5.15625 0 Z M 5.15625 -0.921875 "/></g></g></g><g fill="#49e9ff" fill-opacity="1"><g transform="translate(405.161596, 894.28621)"><g><path d="M 5.15625 -0.921875 L 6.921875 -0.921875 C 8.085938 -1.066406 9.6875 -1.601562 11.71875 -2.53125 C 13.75 -3.457031 15.96875 -5.210938 18.375 -7.796875 C 20.789062 -10.378906 23.132812 -14.21875 25.40625 -19.3125 L 46.46875 -65.46875 L 57.109375 -89.015625 L 92.3125 -11.765625 C 93.832031 -8.535156 95.585938 -6.144531 97.578125 -4.59375 C 99.578125 -3.039062 101.4375 -2.054688 103.15625 -1.640625 C 104.882812 -1.234375 106.09375 -0.992188 106.78125 -0.921875 L 107.296875 -0.921875 L 107.296875 0 L 65.359375 0 L 65.359375 -0.921875 L 65.890625 -0.921875 C 66.429688 -0.921875 67.179688 -1.039062 68.140625 -1.28125 C 69.109375 -1.53125 70.023438 -2 70.890625 -2.6875 C 71.753906 -3.375 72.269531 -4.441406 72.4375 -5.890625 C 72.613281 -7.335938 72.113281 -9.296875 70.9375 -11.765625 L 64.125 -26.75 L 29.84375 -26.75 L 26.4375 -19.3125 C 24.851562 -15.863281 23.867188 -13.019531 23.484375 -10.78125 C 23.109375 -8.550781 23.109375 -6.765625 23.484375 -5.421875 C 23.867188 -4.078125 24.457031 -3.09375 25.25 -2.46875 C 26.039062 -1.851562 26.8125 -1.441406 27.5625 -1.234375 C 28.320312 -1.023438 28.875 -0.921875 29.21875 -0.921875 L 29.53125 -0.921875 L 29.53125 0 L 5.15625 0 Z M 63.71875 -27.671875 L 46.984375 -64.328125 L 30.25 -27.671875 Z M 63.71875 -27.671875 "/></g></g></g><g fill="#49e9ff" fill-opacity="1"><g transform="translate(517.616931, 894.28621)"><g><path d="M 26.546875 -0.921875 C 30.328125 -0.921875 33.300781 -1.898438 35.46875 -3.859375 C 37.632812 -5.828125 38.71875 -8.5 38.71875 -11.875 L 38.71875 -88.078125 L 37.6875 -88.078125 C 32.664062 -88.078125 28.398438 -87.546875 24.890625 -86.484375 C 21.378906 -85.421875 18.46875 -84.046875 16.15625 -82.359375 C 13.851562 -80.671875 12.015625 -78.894531 10.640625 -77.03125 C 9.265625 -75.175781 8.25 -73.382812 7.59375 -71.65625 C 6.9375 -69.9375 6.503906 -68.5625 6.296875 -67.53125 L 5.984375 -65.671875 L 5.15625 -66.09375 L 8.671875 -89.015625 L 90.046875 -89.015625 L 93.5625 -66.09375 L 92.734375 -65.671875 L 92.421875 -67.53125 C 92.210938 -68.5625 91.78125 -69.9375 91.125 -71.65625 C 90.476562 -73.382812 89.460938 -75.175781 88.078125 -77.03125 C 86.703125 -78.894531 84.859375 -80.671875 82.546875 -82.359375 C 80.242188 -84.046875 77.335938 -85.421875 73.828125 -86.484375 C 70.316406 -87.546875 66.050781 -88.078125 61.03125 -88.078125 L 60.09375 -88.078125 L 60.09375 -11.875 C 60.09375 -8.5 61.175781 -5.828125 63.34375 -3.859375 C 65.519531 -1.898438 68.5 -0.921875 72.28125 -0.921875 L 72.28125 0 L 26.546875 0 Z M 26.546875 -0.921875 "/></g></g></g><path stroke-linecap="butt" transform="matrix(0.75, 0, 0, 0.75, 87.384306, 647.961548)" fill="none" stroke-linejoin="miter" d="M 136.456354 77.686693 C 136.456354 69.421067 138.013646 61.639817 141.128229 54.358566 C 144.242813 47.051274 148.581355 40.618982 154.138647 35.061689 C 159.695939 29.504397 166.117815 25.165855 173.399066 22.051272 C 180.706358 18.936688 188.492817 17.379396 196.763651 17.379396 C 205.013652 17.379396 212.789694 18.936688 220.096986 22.051272 C 227.404279 25.165855 233.826154 29.504397 239.357405 35.061689 C 244.919905 40.618982 249.253239 47.051274 252.367822 54.358566 C 255.508448 61.639817 257.076156 69.421067 257.076156 77.686693 C 257.076156 85.04086 255.831364 91.999194 253.346989 98.566903 C 250.878239 105.10857 247.440739 111.051279 243.024072 116.384613 C 238.607405 121.697114 233.419904 126.098156 227.456362 129.592948 L 228.971987 131.243989 C 232.737612 135.655448 236.367821 138.874198 239.862613 140.889824 C 243.357405 142.910657 246.711572 144.072116 249.914697 144.389824 C 253.123031 144.723157 256.237614 144.499199 259.263656 143.71274 C 262.310532 142.93149 265.258448 141.947115 268.102199 140.754407 L 268.373032 141.733574 L 245.643863 151.478366 C 243.357405 152.488783 240.628238 153.34295 237.440738 154.035658 C 234.284487 154.728366 230.841779 154.931491 227.123029 154.639825 C 223.404278 154.3742 219.52407 153.275241 215.492819 151.348158 C 211.45636 149.421074 207.367818 146.348157 203.221985 142.134615 L 199.086568 137.999198 L 196.763651 137.999198 C 188.404275 137.999198 180.570941 136.421073 173.263649 133.259615 C 165.982398 130.077323 159.581356 125.717947 154.070939 120.181488 C 148.555313 114.624196 144.242813 108.191904 141.128229 100.884612 C 138.013646 93.577319 136.456354 85.848152 136.456354 77.686693 Z M 164.524065 77.686693 C 164.524065 87.327319 165.185523 95.493986 166.50844 102.197112 C 167.85219 108.900237 169.623024 114.410655 171.82094 118.73878 C 174.039691 123.040864 176.383441 126.436697 178.846983 128.921073 L 186.581358 125.592947 C 191.352192 123.95753 195.602192 122.566905 199.320943 121.42628 C 203.039693 120.259613 206.524068 119.67628 209.774069 119.67628 C 213.024069 119.67628 216.310528 120.686697 219.623028 122.702322 C 222.294903 118.400238 224.513653 112.629404 226.284487 105.38982 C 228.076154 98.129403 228.971987 88.895027 228.971987 77.686693 C 228.971987 67.040859 228.143862 58.1919 226.482403 51.129399 C 224.846987 44.046065 222.74282 38.379398 220.164695 34.118981 C 217.586569 29.837731 214.805319 26.624189 211.826152 24.473147 C 208.846985 22.322105 206.01886 20.874188 203.352193 20.134605 C 200.711568 19.395021 198.513651 19.02523 196.763651 19.02523 C 195.018859 19.02523 192.810526 19.395021 190.143859 20.134605 C 187.477192 20.874188 184.675108 22.322105 181.737608 24.473147 C 178.800108 26.624189 176.024066 29.837731 173.399066 34.118981 C 170.800107 38.379398 168.669898 44.046065 167.013648 51.129399 C 165.35219 58.1919 164.524065 67.040859 164.524065 77.686693 Z M 179.820941 129.728364 C 183.024066 132.577323 186.164692 134.389823 189.2324 135.176281 C 192.326151 135.96274 194.836567 136.353365 196.763651 136.353365 L 197.435526 136.353365 C 194.409484 133.327323 191.956359 131.243989 190.07615 130.098156 C 188.190733 128.936698 186.51365 128.374197 185.034483 128.421072 C 183.57615 128.462739 181.836566 128.900239 179.820941 129.728364 Z M 334.71158 138.973157 C 328.930329 138.973157 323.190745 137.988782 317.498036 136.014823 C 311.805328 134.046073 306.617827 131.264823 301.935535 127.681489 C 297.274076 124.092947 293.539701 119.889822 290.737617 115.072113 C 287.935534 110.254404 286.534492 105.040862 286.534492 99.441903 L 286.534492 35.129398 C 286.534492 30.535647 285.159492 26.957522 282.404283 24.405438 C 279.643866 21.827313 275.789699 20.535646 270.836574 20.535646 L 270.836574 19.296063 L 330.175121 19.296063 L 330.175121 20.535646 C 325.128245 20.535646 321.274078 21.80648 318.607411 24.33773 C 315.940745 26.848147 314.607411 30.129397 314.607411 34.186689 L 314.607411 88.983569 C 314.607411 92.931486 314.810536 97.10857 315.211578 101.525237 C 315.638661 105.915862 316.357411 110.233571 317.36262 114.467946 C 318.373036 118.681488 319.841787 122.514822 321.76887 125.962739 C 323.695954 129.395031 326.149079 132.150239 329.133454 134.233573 C 332.133454 136.296073 335.789705 137.327323 340.091788 137.327323 C 342.758455 137.327323 345.784497 136.936698 349.169914 136.15024 C 352.576164 135.36899 356.013665 134.098156 359.487623 132.353364 C 362.982415 130.603364 366.221999 128.285656 369.206374 125.395031 C 372.206374 122.504405 374.591791 119.014822 376.362625 114.936696 C 378.1595 110.858571 379.055333 106.020029 379.055333 100.415862 L 379.055333 34.457523 C 379.055333 30.129397 377.675125 26.733564 374.919916 24.270022 C 372.164708 21.780438 368.305332 20.535646 363.352207 20.535646 L 363.352207 19.296063 L 395.862627 19.296063 L 395.862627 20.535646 C 391.091793 20.535646 387.300126 21.780438 384.498042 24.270022 C 381.701167 26.733564 380.300125 30.129397 380.300125 34.457523 L 380.300125 100.415862 C 380.300125 108.952321 378.227208 116.072113 374.076166 121.764822 C 369.956374 127.457531 364.430332 131.749198 357.503248 134.639823 C 350.581373 137.530448 342.982414 138.973157 334.71158 138.973157 Z M 409.628253 136.754407 C 414.66992 136.754407 418.633462 135.457531 421.529295 132.858573 C 424.419921 130.233573 425.862629 126.671072 425.862629 122.165864 L 425.862629 35.129398 C 425.862629 30.535647 424.419921 26.957522 421.529295 24.405438 C 418.633462 21.827313 414.66992 20.535646 409.628253 20.535646 L 409.628253 19.296063 L 470.607425 19.296063 L 470.607425 20.535646 C 465.565758 20.535646 461.602216 21.827313 458.706382 24.405438 C 455.815757 26.957522 454.373048 30.535647 454.373048 35.129398 L 454.373048 122.165864 C 454.373048 126.671072 455.815757 130.233573 458.706382 132.858573 C 461.602216 135.457531 465.565758 136.754407 470.607425 136.754407 L 470.607425 137.999198 L 409.628253 137.999198 Z M 544.701181 137.999198 C 536.70118 137.999198 529.16993 136.55649 522.107429 133.660656 C 515.050137 130.770031 508.763678 126.717947 503.248052 121.493989 C 497.737635 116.249196 493.320968 110.186696 490.00326 103.306487 C 486.711593 96.426278 484.836593 88.983569 484.388676 80.983568 L 484.388676 74.092943 C 484.836593 66.582525 486.597009 59.525233 489.669926 52.910649 C 492.763677 46.301274 496.78451 40.462732 501.737636 35.395023 L 502.138677 34.993981 C 507.831386 29.301272 514.32097 24.941897 521.607429 21.915855 C 528.909513 18.889813 536.612639 17.379396 544.701181 17.379396 C 551.763682 17.379396 558.508474 18.566896 564.940766 20.941896 C 571.4616 22.86898 576.2116 23.608563 579.195976 23.160647 C 582.175143 22.691897 583.800143 21.176272 584.065768 18.624188 L 585.31056 18.624188 L 585.31056 51.098149 L 584.065768 51.098149 C 583.888684 46.056482 582.669934 41.540857 580.404309 37.551273 C 578.164726 33.561689 575.18035 30.139814 571.4616 27.296064 C 567.763683 24.447105 563.617849 22.296063 559.024099 20.842938 C 554.430349 19.363771 549.654307 18.624188 544.701181 18.624188 C 542.951181 18.624188 540.748056 18.99398 538.076181 19.733563 C 535.409514 20.447105 532.612638 21.915855 529.675138 24.134605 C 526.737638 26.332522 523.956388 29.613772 521.336596 33.983564 C 518.737637 38.332523 516.607429 44.046065 514.951179 51.129399 C 513.28972 58.1919 512.461595 67.040859 512.461595 77.686693 C 512.461595 88.243986 513.28972 97.087736 514.951179 104.212737 C 516.607429 111.316904 518.737637 117.056488 521.336596 121.42628 C 523.956388 125.775239 526.737638 129.056489 529.675138 131.275239 C 532.612638 133.473156 535.409514 134.941906 538.076181 135.68149 C 540.748056 136.395032 542.951181 136.754407 544.701181 136.754407 C 552.409515 136.754407 559.201182 135.176281 565.076183 132.014823 C 570.945975 128.853364 575.550142 124.36378 578.888684 118.535655 C 582.253268 112.686696 583.977226 105.816904 584.065768 97.926278 L 584.065768 96.009611 L 585.31056 96.009611 L 585.31056 136.754407 L 584.065768 136.754407 C 583.800143 133.999198 582.097018 132.462739 578.956392 132.150239 C 575.841809 131.837739 571.169933 132.598156 564.940766 134.436698 C 558.508474 136.811698 551.763682 137.999198 544.701181 137.999198 Z M 698.091819 105.926279 C 701.206403 117.02003 705.352237 124.931489 710.52932 129.660656 C 715.727238 134.389823 721.399113 136.754407 727.539739 136.754407 L 727.539739 137.999198 L 700.003278 137.999198 C 696.623069 137.999198 692.945986 136.879407 688.977235 134.639823 C 685.034527 132.374198 681.268901 128.853364 677.685568 124.08253 C 674.117859 119.306488 671.091817 113.259613 668.607442 105.926279 C 666.498067 99.587737 664.248066 94.17107 661.847025 89.691902 C 659.472024 85.186694 656.841816 81.967943 653.951191 80.04086 C 651.055357 78.113776 647.685565 77.832526 643.831398 79.202318 L 643.831398 122.165864 C 643.831398 126.671072 645.274106 130.233573 648.164732 132.858573 C 651.055357 135.457531 655.024107 136.754407 660.065774 136.754407 L 660.065774 137.999198 L 599.081394 137.999198 L 599.081394 136.754407 C 604.12827 136.754407 608.091812 135.457531 610.982437 132.858573 C 613.87827 130.233573 615.320979 126.671072 615.320979 122.165864 L 615.320979 35.129398 C 615.320979 30.535647 613.87827 26.957522 610.982437 24.405438 C 608.091812 21.827313 604.12827 20.535646 599.081394 20.535646 L 599.081394 19.296063 L 660.065774 19.296063 L 660.065774 20.535646 C 655.024107 20.535646 651.055357 21.827313 648.164732 24.405438 C 645.274106 26.957522 643.831398 30.535647 643.831398 35.129398 L 643.831398 75.905443 L 682.925151 35.129398 C 685.862652 32.103356 687.68036 29.650231 688.373069 27.764814 C 689.070985 25.884605 689.091819 24.436688 688.440777 23.43148 C 687.789735 22.421063 686.873068 21.71273 685.685568 21.311688 C 684.498068 20.884605 683.440776 20.629396 682.52411 20.535646 L 681.013693 20.535646 L 681.013693 19.296063 L 713.518904 19.296063 L 713.518904 20.535646 L 711.435571 20.535646 C 709.867862 20.629396 707.706404 21.066896 704.945987 21.848147 C 702.211611 22.634605 699.097028 24.05648 695.602236 26.11898 C 692.107444 28.18148 688.43036 31.181481 684.576193 35.129398 L 643.831398 77.82211 C 648.602232 73.790859 653.690774 71.639818 659.091816 71.368984 C 664.513691 71.077317 669.836609 72.332526 675.060567 75.13461 C 680.30536 77.936693 684.945985 81.97836 688.977235 87.270027 C 693.034527 92.535653 696.070986 98.754403 698.091819 105.926279 Z M 698.091819 105.926279 " stroke="#49e9ff" stroke-width="5.16405" stroke-opacity="1" stroke-miterlimit="4"/><path stroke-linecap="butt" transform="matrix(0.75, 0, 0, 0.75, 87.384306, 647.961548)" fill="none" stroke-linejoin="miter" d="M 225.888653 329.999215 C 217.888653 329.999215 210.357402 328.556507 203.30011 325.660673 C 196.237609 322.770048 189.95115 318.717964 184.440733 313.494005 C 178.925108 308.249213 174.508441 302.186713 171.19594 295.306504 C 167.899065 288.426295 166.029273 280.983586 165.581357 272.983585 L 165.581357 266.092959 C 166.029273 258.582542 167.784482 251.52525 170.857399 244.910666 C 173.951149 238.30129 177.971983 232.462748 182.925108 227.395039 L 183.331358 226.993998 C 189.024067 221.301289 195.508442 216.941913 202.794901 213.915872 C 210.102194 210.88983 217.800111 209.379413 225.888653 209.379413 C 232.951154 209.379413 239.695946 210.566913 246.128239 212.941913 C 252.649072 214.868997 257.399073 215.60858 260.383448 215.160663 C 263.362615 214.691913 264.987615 213.176288 265.258448 210.624205 L 266.50324 210.624205 L 266.50324 243.098166 L 265.258448 243.098166 C 265.076157 238.056499 263.857407 233.540873 261.591782 229.55129 C 259.352198 225.561706 256.373031 222.139831 252.649072 219.29608 C 248.951155 216.447122 244.805322 214.29608 240.211571 212.842955 C 235.617821 211.363788 230.841779 210.624205 225.888653 210.624205 C 224.143862 210.624205 221.935528 210.993996 219.268861 211.73358 C 216.602194 212.447121 213.800111 213.915872 210.86261 216.134622 C 207.92511 218.332539 205.149068 221.613789 202.524068 225.983581 C 199.925109 230.33254 197.794901 236.046082 196.138651 243.129416 C 194.477192 250.191916 193.649067 259.040875 193.649067 269.68671 C 193.649067 280.244002 194.477192 289.087753 196.138651 296.212754 C 197.794901 303.316921 199.925109 309.056505 202.524068 313.426297 C 205.149068 317.775256 207.92511 321.056506 210.86261 323.275256 C 213.800111 325.473173 216.602194 326.941923 219.268861 327.681506 C 221.935528 328.395048 224.143862 328.754423 225.888653 328.754423 C 233.602196 328.754423 240.388655 327.176298 246.263655 324.014839 C 252.133447 320.853381 256.742823 316.363797 260.081365 310.535672 C 263.44074 304.686713 265.169907 297.816921 265.258448 289.926295 L 265.258448 288.009628 L 266.50324 288.009628 L 266.50324 328.754423 L 265.258448 328.754423 C 264.987615 325.999215 263.28449 324.462756 260.149073 324.150256 C 257.029281 323.837756 252.357406 324.598173 246.128239 326.436715 C 239.695946 328.811715 232.951154 329.999215 225.888653 329.999215 Z M 280.274075 328.754423 C 285.315742 328.754423 289.284492 327.457548 292.175118 324.85859 C 295.065743 322.233589 296.508451 318.671089 296.508451 314.16588 L 296.508451 227.129414 C 296.508451 222.535664 295.065743 218.957539 292.175118 216.405455 C 289.284492 213.82733 285.315742 212.535663 280.274075 212.535663 L 280.274075 211.29608 L 341.258455 211.29608 L 341.258455 212.535663 C 336.21158 212.535663 332.248038 213.82733 329.357412 216.405455 C 326.466787 218.957539 325.01887 222.535664 325.01887 227.129414 L 325.01887 272.983585 L 372.117833 272.983585 L 372.117833 227.129414 C 372.117833 222.535664 370.669916 218.957539 367.779291 216.405455 C 364.888665 213.82733 360.909498 212.535663 355.846998 212.535663 L 355.846998 211.29608 L 416.862628 211.29608 L 416.862628 212.535663 C 411.820961 212.535663 407.852211 213.82733 404.961586 216.405455 C 402.07096 218.957539 400.628252 222.535664 400.628252 227.129414 L 400.628252 314.16588 C 400.628252 318.671089 402.07096 322.233589 404.961586 324.85859 C 407.852211 327.457548 411.820961 328.754423 416.862628 328.754423 L 416.862628 329.999215 L 355.846998 329.999215 L 355.846998 328.754423 C 360.909498 328.754423 364.888665 327.457548 367.779291 324.85859 C 370.669916 322.233589 372.117833 318.671089 372.117833 314.16588 L 372.117833 274.228377 L 325.01887 274.228377 L 325.01887 314.16588 C 325.01887 318.671089 326.466787 322.233589 329.357412 324.85859 C 332.248038 327.457548 336.21158 328.754423 341.258455 328.754423 L 341.258455 329.999215 L 280.274075 329.999215 Z M 430.628255 328.754423 L 432.945963 328.754423 C 434.513672 328.57734 436.654297 327.869006 439.367839 326.63984 C 442.081381 325.384631 445.039714 323.040881 448.242839 319.613797 C 451.445965 316.160672 454.576173 311.04088 457.623049 304.249213 L 485.695968 242.691916 L 499.883469 211.29608 L 546.847015 314.301297 C 548.86264 318.624214 551.195973 321.822131 553.836599 323.879423 C 556.503265 325.941923 558.982432 327.254423 561.268891 327.816923 C 563.576183 328.353381 565.190766 328.665882 566.107433 328.754423 L 566.815766 328.754423 L 566.815766 329.999215 L 510.909511 329.999215 L 510.909511 328.754423 L 511.581387 328.754423 C 512.32097 328.754423 513.326178 328.598173 514.607428 328.285673 C 515.904304 327.947131 517.128262 327.332548 518.268887 326.436715 C 519.414721 325.520048 520.097012 324.092964 520.320971 322.165881 C 520.565762 320.238797 519.904304 317.619006 518.336595 314.301297 L 509.25847 294.332545 L 463.539716 294.332545 L 459.003257 304.249213 C 456.873048 308.842963 455.550132 312.629422 455.034507 315.613797 C 454.539715 318.592964 454.539715 320.978381 455.034507 322.770048 C 455.550132 324.566923 456.33659 325.874215 457.388674 326.707548 C 458.46159 327.535673 459.503257 328.082548 460.513674 328.353381 C 461.524091 328.624215 462.253257 328.754423 462.701174 328.754423 L 463.102216 328.754423 L 463.102216 329.999215 L 430.628255 329.999215 Z M 508.690761 293.087753 L 486.399093 244.207541 L 464.076174 293.087753 Z M 609.076187 328.754423 C 614.117854 328.754423 618.086604 327.457548 620.977229 324.85859 C 623.867855 322.233589 625.315771 318.671089 625.315771 314.16588 L 625.315771 212.535663 L 623.935563 212.535663 C 617.237646 212.535663 611.544937 213.254413 606.857436 214.691913 C 602.175144 216.103372 598.294936 217.941914 595.227227 220.20233 C 592.15431 222.441914 589.701185 224.806498 587.862643 227.296081 C 586.024101 229.759623 584.669935 232.150248 583.794934 234.45754 C 582.919934 236.743999 582.352226 238.572124 582.081393 239.936707 L 581.680351 242.426291 L 580.570976 241.884624 L 585.242851 211.29608 L 693.763694 211.29608 L 698.435569 241.884624 L 697.326194 242.426291 L 696.919944 239.936707 C 696.654319 238.572124 696.081403 236.743999 695.206402 234.45754 C 694.331402 232.150248 692.977236 229.759623 691.138694 227.296081 C 689.300152 224.806498 686.847027 222.441914 683.779318 220.20233 C 680.706401 217.941914 676.831401 216.103372 672.1439 214.691913 C 667.461608 213.254413 661.7689 212.535663 655.065774 212.535663 L 653.820982 212.535663 L 653.820982 314.16588 C 653.820982 318.671089 655.268899 322.233589 658.159524 324.85859 C 661.05015 327.457548 665.0189 328.754423 670.060567 328.754423 L 670.060567 329.999215 L 609.076187 329.999215 Z M 609.076187 328.754423 " stroke="#49e9ff" stroke-width="5.16405" stroke-opacity="1" stroke-miterlimit="4"/></svg>